<mxfile host="app.diagrams.net" modified="2020-07-16T09:47:55.873Z" agent="5.0 (Windows NT 10.0; Win64; x64) AppleWebKit/537.36 (KHTML, like Gecko) Chrome/83.0.4103.116 Safari/537.36 Edg/83.0.478.64" etag="7T6A3ETM3YnqrWiq9nNC" version="13.4.4" type="github">
  <diagram id="esJzJPp7fxd8QKTlcZkE" name="Page-1">
    <mxGraphModel dx="446" dy="777" grid="1" gridSize="10" guides="1" tooltips="1" connect="1" arrows="1" fold="1" page="1" pageScale="1" pageWidth="850" pageHeight="1100" math="0" shadow="0">
      <root>
        <mxCell id="0" />
        <mxCell id="1" parent="0" />
        <mxCell id="aJgIxPmhOnbDEEiDRD4a-1" value="&lt;font face=&quot;TH Sarabun New&quot; style=&quot;font-size: 20px&quot;&gt;เริ่มต้น&lt;/font&gt;" style="rounded=1;whiteSpace=wrap;html=1;" vertex="1" parent="1">
          <mxGeometry x="365" y="30" width="120" height="60" as="geometry" />
        </mxCell>
        <mxCell id="aJgIxPmhOnbDEEiDRD4a-2" value="&lt;font face=&quot;TH Sarabun New&quot; style=&quot;font-size: 20px&quot;&gt;บันทึกเสียง&lt;/font&gt;" style="rounded=0;whiteSpace=wrap;html=1;" vertex="1" parent="1">
          <mxGeometry x="365" y="130" width="120" height="60" as="geometry" />
        </mxCell>
        <mxCell id="aJgIxPmhOnbDEEiDRD4a-4" value="&lt;font face=&quot;TH Sarabun New&quot; style=&quot;font-size: 20px&quot;&gt;ระยะเวลา = 5 วินาที?&lt;/font&gt;" style="rhombus;whiteSpace=wrap;html=1;" vertex="1" parent="1">
          <mxGeometry x="347" y="240" width="157" height="100" as="geometry" />
        </mxCell>
      </root>
    </mxGraphModel>
  </diagram>
</mxfile>
